# xmcd
#
# Track frame offsets: 
#        150
#        14933
#        27195
#        43460
#        63735
#        84903
#
# Disc length: 1293 seconds
#
# Revision: 0
# Processed by: cddbd v1.4PL0 Copyright (c) Steve Scherf et al.
# Submitted via: ExactAudioCopy v0.90b4
#
DISCID=51050b06
DTITLE=Reed Willison - Confused
DYEAR=1999
DGENRE=Country
TTITLE0=Lesson In Love
TTITLE1=Confused
TTITLE2=What's It Take
TTITLE3=If This Is Love
TTITLE4=Alberta Ave.
TTITLE5=Coffee Shop Song
EXTD=
EXTT0=
EXTT1=
EXTT2=
EXTT3=
EXTT4=
EXTT5=
PLAYORDER=
